<?xml version="1.0" standalone="no"?>
<!DOCTYPE svg PUBLIC "-//W3C//DTD SVG 20010904//EN"
 "http://www.w3.org/TR/2001/REC-SVG-20010904/DTD/svg10.dtd">
<svg version="1.0" xmlns="http://www.w3.org/2000/svg"
 width="576.000000pt" height="576.000000pt" viewBox="0 0 576.000000 576.000000"
 preserveAspectRatio="xMidYMid meet">
<metadata>
Created by potrace 1.14, written by Peter Selinger 2001-2017
</metadata>
<g transform="translate(0.000000,576.000000) scale(0.100000,-0.100000)"
fill="#000000" stroke="none">
<path d="M4585 5419 c-33 -11 -67 -23 -75 -26 -8 -3 -18 -5 -22 -5 -5 1 -8 -2
-8 -8 0 -5 -5 -10 -11 -10 -6 0 -31 -14 -56 -31 -25 -18 -646 -632 -1379
-1365 -952 -952 -1334 -1340 -1335 -1356 0 -13 -2 -34 -4 -48 -4 -27 -13 -111
-20 -175 -3 -38 -8 -84 -21 -200 -6 -54 -9 -81 -18 -165 -8 -76 -15 -132 -22
-187 -19 -147 -9 -251 31 -337 44 -93 166 -188 275 -214 41 -10 194 -9 245 2
12 2 52 7 90 11 39 4 81 8 95 10 14 2 54 6 90 10 36 4 76 8 90 10 14 1 54 6
90 9 36 4 83 10 105 12 46 6 84 10 173 19 l64 6 1334 1335 c1286 1286 1363
1366 1416 1474 41 82 57 258 34 363 -12 51 -47 135 -71 172 -14 20 -25 39 -25
43 0 4 -127 134 -282 288 -295 292 -330 320 -455 360 -76 25 -254 26 -328 3z
m365 -622 c85 -84 193 -191 239 -239 82 -85 85 -89 85 -136 l1 -49 -167 -167
-166 -168 -291 291 -291 291 153 153 c187 187 190 190 242 182 35 -5 59 -25
195 -158z m-639 -807 l290 -290 -930 -930 -931 -929 -62 -6 c-35 -3 -74 -7
-88 -10 -14 -2 -52 -7 -84 -10 -33 -3 -71 -7 -85 -10 -15 -2 -54 -7 -86 -9
-33 -3 -76 -7 -95 -10 -19 -3 -61 -8 -94 -11 l-58 -4 6 42 c3 23 8 67 11 97 3
30 8 73 11 95 3 22 7 65 10 95 2 30 7 66 9 80 2 14 7 55 10 92 4 37 8 75 10
85 2 10 4 28 4 40 1 16 273 295 929 952 510 511 928 930 930 930 2 1 133 -129
293 -289z"/>
<path d="M518 4805 c-3 -3 -36 -7 -74 -9 -117 -7 -235 -64 -321 -156 -44 -47
-98 -153 -112 -218 -8 -39 -11 -571 -11 -1876 l0 -1823 22 -64 c50 -149 163
-265 313 -319 60 -22 3670 -28 3773 -6 77 16 168 66 226 123 41 40 105 133
111 161 2 9 9 33 15 52 6 19 14 69 16 110 3 41 7 81 9 88 2 6 0 12 -4 12 -5 0
-7 8 -5 18 6 25 10 222 4 222 -4 0 -3 67 1 155 1 12 0 102 -2 160 -1 22 -1 46
0 53 1 6 1 18 2 25 1 13 0 93 -2 162 -1 22 -1 46 0 53 2 20 2 41 2 172 0 69 1
155 2 193 1 37 0 67 -3 67 -3 0 -4 27 -3 60 2 78 -21 110 -76 110 -36 0 -48
-10 -206 -167 -92 -93 -174 -178 -182 -189 -9 -14 -13 -50 -13 -110 1 -49 1
-98 1 -109 0 -11 0 -60 0 -110 1 -49 1 -97 0 -105 0 -8 0 -60 0 -115 0 -55 -1
-118 -2 -140 0 -22 -1 -46 -1 -52 2 -21 2 -190 1 -316 l-1 -118 -36 1 c-51 1
-274 1 -289 1 -7 -1 -19 -1 -25 -2 -7 -1 -58 -1 -113 0 -141 2 -262 2 -315 0
-25 0 -49 -1 -55 0 -5 0 -55 0 -110 0 -55 1 -152 1 -215 2 -112 0 -126 0 -152
-2 -7 -1 -58 -1 -113 0 -141 2 -262 2 -315 0 -25 0 -49 -1 -55 0 -5 0 -55 0
-110 0 -55 1 -152 1 -215 2 -112 0 -126 0 -152 -2 -7 -1 -58 -1 -113 0 -141 2
-262 2 -315 0 -25 0 -49 -1 -55 0 -5 0 -55 0 -110 0 -55 1 -152 1 -215 2 -110
0 -125 0 -152 -2 -7 0 -75 0 -150 1 l-137 2 -1 211 c-1 117 -1 219 -1 227 -1
8 0 35 0 60 2 46 2 122 0 335 0 66 0 127 0 135 0 8 0 71 0 140 -1 69 -1 131 0
138 2 26 2 42 2 182 0 80 0 154 0 165 1 190 0 237 -1 275 -1 25 -2 52 -1 60 0
8 0 56 0 105 -1 50 -1 97 0 105 0 16 0 209 0 225 -1 6 0 30 0 55 2 46 2 122 0
335 0 66 0 127 0 135 0 8 0 71 0 140 -1 69 -1 131 0 138 2 23 4 248 2 280 0 6
-1 23 -2 37 -1 14 1 28 3 31 3 2 29 4 59 4 30 0 70 0 89 1 19 1 40 1 45 1 6
-1 55 -1 110 -1 55 -1 152 -1 215 -2 63 0 122 0 130 0 8 0 80 0 160 0 141 0
156 0 183 2 6 1 57 1 112 0 141 -2 262 -2 315 0 25 0 50 1 55 0 6 0 55 0 110
0 55 -1 152 -1 215 -2 112 0 126 0 153 2 6 1 68 1 137 0 69 0 134 0 145 0 11
0 58 0 105 0 47 0 91 1 98 1 13 1 338 319 365 358 20 29 13 70 -19 97 -22 20
-35 23 -119 22 -52 0 -98 2 -103 5 -4 2 -14 1 -20 -3 -7 -4 -33 -5 -57 -1 -25
4 -45 4 -45 1 0 -3 -27 -6 -60 -6 -33 0 -60 2 -60 5 0 6 -438 2 -462 -4 -10
-2 -18 -1 -18 2 0 6 -74 6 -235 1 -5 0 -64 0 -130 0 -66 0 -127 0 -135 0 -8
-1 -44 0 -80 0 -36 1 -117 2 -180 2 -63 0 -119 0 -125 0 -5 1 -28 0 -50 0 -22
-1 -47 -1 -55 0 -21 1 -117 0 -160 -2 -19 -1 -39 -1 -45 -1 -5 1 -64 1 -130 1
-66 0 -149 1 -185 2 -36 0 -72 1 -80 0 -48 -2 -194 1 -200 4 -4 3 -9 2 -12 0z"/>
</g>
</svg>
